<svg width="59" height="14" viewBox="0 0 59 14" fill="none" xmlns="http://www.w3.org/2000/svg">
<path d="M6.11101 4.27605C6.59901 4.27605 6.99901 4.34005 7.31101 4.46805C7.35101 4.49205 7.37501 4.51205 7.38301 4.52805C7.39901 4.54405 7.39901 4.57205 7.38301 4.61205L7.16701 5.06805C7.15101 5.10805 7.13101 5.13205 7.10701 5.14005C7.08301 5.14805 7.05501 5.14405 7.02301 5.12805C6.87986 5.07672 6.73058 5.04445 6.57901 5.03205C6.42413 5.00844 6.26769 4.99641 6.11101 4.99605C5.98301 4.99605 5.84701 5.00805 5.70301 5.03205C5.57387 5.05455 5.44575 5.08258 5.31901 5.11606C5.20701 5.14006 5.11901 5.16406 5.05501 5.18806L4.91101 5.27205C4.86301 5.30405 4.82701 5.37605 4.80301 5.48805L3.87901 9.86805C3.86301 9.92405 3.84301 9.96005 3.81901 9.97605C3.80301 9.99205 3.77501 10.0001 3.73501 10.0001H3.08701C3.0759 10.0004 3.06484 9.99843 3.05452 9.9943C3.0442 9.99017 3.03483 9.98396 3.02701 9.97605C3.01101 9.96005 3.01101 9.93205 3.02701 9.89205L4.07101 4.98406C4.09501 4.86406 4.12301 4.78405 4.15501 4.74405C4.19501 4.70405 4.25501 4.66805 4.33501 4.63605C4.59101 4.52405 4.88301 4.43606 5.21101 4.37206C5.54701 4.30806 5.84701 4.27605 6.11101 4.27605ZM7.53301 7.15605C7.62101 6.78005 7.73701 6.41605 7.88101 6.06405C8.02501 5.71205 8.21701 5.40005 8.45701 5.12805C8.69701 4.84805 8.98901 4.62805 9.33301 4.46805C9.67701 4.30805 10.085 4.22806 10.557 4.22806C11.053 4.22806 11.429 4.30005 11.685 4.44405C11.949 4.58805 12.129 4.78405 12.225 5.03205C12.329 5.27205 12.373 5.54005 12.357 5.83605C12.349 6.12405 12.313 6.41605 12.249 6.71205C12.193 7.00805 12.125 7.19205 12.045 7.26405C11.9663 7.33553 11.8633 7.37417 11.757 7.37206H8.49301C8.46355 7.37353 8.43481 7.38174 8.40902 7.39605C8.37702 7.41205 8.35301 7.45605 8.33701 7.52805C8.27301 7.88805 8.26901 8.21205 8.32501 8.50005C8.38101 8.78805 8.51301 9.01205 8.72101 9.17205C8.92901 9.32405 9.22501 9.40005 9.60901 9.40005C9.89701 9.40005 10.201 9.36805 10.521 9.30405C10.849 9.23205 11.121 9.13605 11.337 9.01605C11.3851 8.98705 11.4379 8.96674 11.493 8.95606C11.541 8.94006 11.573 8.97205 11.589 9.05205L11.685 9.35206C11.701 9.40006 11.701 9.43605 11.685 9.46005C11.6482 9.48902 11.6079 9.51321 11.565 9.53205C11.2461 9.73313 10.8918 9.8716 10.521 9.94005C10.129 10.0201 9.73301 10.0601 9.33301 10.0601C8.83701 10.0601 8.44901 9.98805 8.16901 9.84405C7.90503 9.70878 7.69383 9.48914 7.56901 9.22006C7.44426 8.92406 7.38294 8.60521 7.38901 8.28406C7.39701 7.93206 7.44501 7.55605 7.53301 7.15605ZM11.409 6.56805C11.457 6.35205 11.481 6.14805 11.481 5.95605C11.489 5.75605 11.457 5.58005 11.385 5.42805C11.321 5.26795 11.2018 5.13602 11.049 5.05606C10.889 4.96006 10.669 4.91206 10.389 4.91206C10.117 4.91206 9.87301 4.96805 9.65701 5.08005C9.44901 5.18405 9.26901 5.32005 9.11701 5.48805C8.96699 5.65311 8.84169 5.83905 8.74501 6.04005C8.64901 6.23205 8.57702 6.42005 8.52902 6.60405C8.50502 6.68405 8.49701 6.74005 8.50501 6.77205C8.51301 6.79605 8.54501 6.80805 8.60101 6.80805H11.169C11.241 6.80805 11.293 6.79605 11.325 6.77205C11.365 6.74005 11.393 6.67205 11.409 6.56805ZM14.78 10.0721C14.012 10.0721 13.48 9.84405 13.184 9.38805C12.896 8.92405 12.856 8.20805 13.064 7.24005C13.192 6.63205 13.368 6.14005 13.592 5.76405C13.824 5.38005 14.08 5.08405 14.36 4.87605C14.64 4.66005 14.924 4.51605 15.212 4.44405C15.508 4.36405 15.788 4.32405 16.052 4.32405C16.316 4.32405 16.572 4.36805 16.82 4.45605C17.068 4.54405 17.24 4.63205 17.336 4.72005L17.396 4.43205C17.404 4.40005 17.416 4.38006 17.432 4.37206C17.4531 4.35702 17.4782 4.34865 17.504 4.34805H18.152C18.216 4.34805 18.248 4.38005 18.248 4.44405C18.224 4.59605 18.184 4.80805 18.128 5.08005C18.08 5.34405 18.016 5.64805 17.936 5.99205C17.864 6.32805 17.78 6.69205 17.684 7.08405C17.596 7.47605 17.496 7.87606 17.384 8.28406C17.28 8.69206 17.168 9.09605 17.048 9.49605C17.0313 9.55339 17.0027 9.60655 16.964 9.65205C16.932 9.69205 16.86 9.73205 16.748 9.77205C16.1115 9.97338 15.4476 10.0746 14.78 10.0721ZM15.008 9.38805C15.144 9.38805 15.288 9.37606 15.44 9.35206L15.872 9.26805C16 9.23605 16.088 9.21205 16.136 9.19605C16.1839 9.18009 16.2286 9.15571 16.268 9.12405C16.3225 9.08237 16.3607 9.02294 16.376 8.95606L16.544 8.29605C16.7308 7.54752 16.9029 6.79537 17.06 6.04005C17.108 5.84005 17.14 5.68805 17.156 5.58405C17.1653 5.53984 17.1611 5.49387 17.144 5.45205C17.128 5.42005 17.092 5.39205 17.036 5.36805C16.8814 5.28808 16.7209 5.21989 16.556 5.16405C16.1866 5.04116 15.788 5.03696 15.416 5.15205C15.2067 5.20859 15.0108 5.30652 14.84 5.44005C14.656 5.58405 14.484 5.80405 14.324 6.10005C14.164 6.38805 14.032 6.77205 13.928 7.25205C13.76 8.05205 13.768 8.60805 13.952 8.92005C14.144 9.23205 14.496 9.38805 15.008 9.38805ZM20.665 10.0601C20.177 10.0601 19.789 9.98805 19.501 9.84405C19.237 9.70878 19.0258 9.48914 18.901 9.22006C18.7763 8.92406 18.7149 8.60521 18.721 8.28406C18.729 7.93206 18.777 7.55605 18.865 7.15605C18.953 6.78005 19.069 6.41605 19.213 6.06405C19.357 5.71205 19.549 5.40005 19.789 5.12805C20.029 4.84805 20.321 4.62805 20.665 4.46805C21.009 4.30805 21.417 4.22806 21.889 4.22806C22.225 4.22806 22.505 4.26405 22.729 4.33605C22.953 4.40005 23.137 4.50405 23.281 4.64805C23.321 4.68805 23.341 4.72005 23.341 4.74405C23.349 4.76005 23.345 4.79205 23.329 4.84005L23.221 5.35605C23.213 5.40405 23.193 5.43205 23.161 5.44005C23.129 5.44005 23.101 5.42406 23.077 5.39206C22.9378 5.22493 22.7484 5.10711 22.537 5.05606C22.3039 4.98388 22.0611 4.94746 21.817 4.94805C21.5279 4.94233 21.2424 5.01268 20.989 5.15205C20.757 5.28005 20.557 5.45206 20.389 5.66806C20.2183 5.88875 20.0771 6.1308 19.969 6.38805C19.7002 7.00321 19.5849 7.67446 19.633 8.34405C19.665 8.67205 19.777 8.92806 19.969 9.11206C20.169 9.28806 20.461 9.37606 20.845 9.37606C21.093 9.37606 21.325 9.35205 21.541 9.30405C21.757 9.24805 21.965 9.17606 22.165 9.08806C22.261 9.04006 22.313 9.05605 22.321 9.13605L22.417 9.52005C22.425 9.56005 22.421 9.59205 22.405 9.61605C22.3824 9.63764 22.3583 9.65768 22.333 9.67605C22.0942 9.81272 21.8348 9.90997 21.565 9.96405C21.2693 10.028 20.9676 10.0602 20.665 10.0601ZM25.242 10.0001C24.746 10.0001 24.402 9.89605 24.21 9.68805C24.018 9.47205 23.922 9.17205 23.922 8.78805C23.93 8.45205 23.97 8.10005 24.042 7.73205C24.122 7.35605 24.202 6.97205 24.282 6.58005C24.346 6.30805 24.406 6.04806 24.462 5.80006C24.518 5.55206 24.582 5.30005 24.654 5.04405C24.67 4.97205 24.642 4.93605 24.57 4.93605H23.97C23.938 4.93605 23.914 4.92806 23.898 4.91206C23.89 4.89606 23.89 4.87205 23.898 4.84005L23.982 4.43205C23.9873 4.40526 23.9998 4.38038 24.018 4.36005C24.034 4.34405 24.062 4.33605 24.102 4.33605H24.714C24.754 4.33605 24.782 4.32805 24.798 4.31205C24.8275 4.27755 24.8481 4.23635 24.858 4.19205L25.134 3.17205C25.15 3.11605 25.178 3.08805 25.218 3.08805H25.89C25.914 3.08805 25.934 3.09605 25.95 3.11205C25.974 3.12805 25.982 3.14805 25.974 3.17205L25.698 4.19205C25.682 4.24805 25.678 4.28805 25.686 4.31205C25.694 4.32805 25.718 4.33605 25.758 4.33605H27.162C27.202 4.33605 27.226 4.34405 27.234 4.36005C27.242 4.36805 27.242 4.39605 27.234 4.44405L27.15 4.82805C27.15 4.86005 27.138 4.88806 27.114 4.91206C27.098 4.92806 27.07 4.93605 27.03 4.93605H25.626C25.602 4.93605 25.574 4.94805 25.542 4.97205C25.518 4.98805 25.502 5.02005 25.494 5.06805C25.3467 5.59117 25.2186 6.11953 25.11 6.65205C25.038 6.98005 24.97 7.31605 24.906 7.66005C24.8432 7.98431 24.811 8.31377 24.81 8.64405C24.81 8.86805 24.862 9.03605 24.966 9.14805C25.078 9.26005 25.274 9.31605 25.554 9.31605C25.667 9.31595 25.7796 9.30388 25.89 9.28005L26.25 9.18405C26.314 9.15205 26.354 9.14005 26.37 9.14805C26.386 9.15605 26.398 9.18406 26.406 9.23206L26.442 9.62805C26.458 9.70005 26.386 9.76805 26.226 9.83205C26.1153 9.86829 26.0032 9.90031 25.89 9.92805C25.7666 9.95132 25.6425 9.97133 25.518 9.98805C25.4262 9.99522 25.3341 9.99922 25.242 10.0001ZM29.756 2.77605C29.7333 2.90182 29.675 3.01843 29.588 3.11205C29.516 3.18405 29.38 3.22005 29.18 3.22005C28.988 3.22005 28.864 3.18405 28.808 3.11205C28.76 3.03205 28.752 2.92005 28.784 2.77605C28.7999 2.65497 28.8597 2.54394 28.952 2.46405C29.04 2.38405 29.18 2.34405 29.372 2.34405C29.58 2.34405 29.7 2.38405 29.732 2.46405C29.772 2.53605 29.78 2.64005 29.756 2.77605ZM28.184 9.91605C28.176 9.97205 28.14 10.0001 28.076 10.0001H27.404C27.348 10.0001 27.324 9.97205 27.332 9.91605L28.496 4.42005C28.512 4.36405 28.548 4.33605 28.604 4.33605H29.276C29.3 4.33605 29.32 4.34405 29.336 4.36005C29.352 4.37605 29.356 4.39605 29.348 4.42005L28.184 9.91605ZM31.066 10.0001C31.0411 10.0015 31.0163 9.99545 30.9949 9.9826C30.9735 9.96975 30.9564 9.95074 30.946 9.92805C30.8207 9.5806 30.7244 9.22338 30.658 8.86005C30.5947 8.48058 30.5347 8.10057 30.478 7.72005C30.398 7.08005 30.346 6.48805 30.322 5.94405C30.3052 5.48011 30.3092 5.01564 30.334 4.55205C30.3375 4.49845 30.3497 4.44577 30.37 4.39605C30.386 4.35605 30.414 4.33605 30.454 4.33605H31.102C31.134 4.33605 31.162 4.34806 31.186 4.37206C31.21 4.38806 31.222 4.41605 31.222 4.45605C31.188 4.77886 31.176 5.10361 31.186 5.42805C31.194 5.79605 31.21 6.19206 31.234 6.61606C31.25 6.92806 31.27 7.22406 31.294 7.50406C31.326 7.78406 31.358 8.03205 31.39 8.24805C31.43 8.46405 31.462 8.63205 31.486 8.75205C31.518 8.84805 31.558 8.89205 31.606 8.88405C31.654 8.86805 31.698 8.82805 31.738 8.76405C31.85 8.62005 31.998 8.38405 32.182 8.05605C32.366 7.72805 32.562 7.35205 32.77 6.92805C33.002 6.46405 33.21 6.00405 33.394 5.54805C33.586 5.09205 33.73 4.71605 33.826 4.42005C33.85 4.36405 33.886 4.33605 33.934 4.33605H34.642C34.69 4.33605 34.706 4.36405 34.69 4.42005C34.5105 4.92012 34.3103 5.41254 34.09 5.89605C33.85 6.44005 33.574 6.98805 33.262 7.54005C33.038 7.96405 32.802 8.37605 32.554 8.77605C32.306 9.16805 32.042 9.55205 31.762 9.92805C31.73 9.97605 31.694 10.0001 31.654 10.0001H31.066ZM34.838 7.15605C34.926 6.78005 35.042 6.41605 35.186 6.06405C35.33 5.71205 35.522 5.40005 35.762 5.12805C36.002 4.84805 36.294 4.62805 36.638 4.46805C36.982 4.30805 37.39 4.22806 37.862 4.22806C38.358 4.22806 38.734 4.30005 38.99 4.44405C39.254 4.58805 39.434 4.78405 39.53 5.03205C39.634 5.27205 39.678 5.54005 39.662 5.83605C39.654 6.12405 39.618 6.41605 39.554 6.71205C39.498 7.00805 39.43 7.19205 39.35 7.26405C39.2713 7.33553 39.1683 7.37417 39.062 7.37206H35.798C35.7685 7.37353 35.7398 7.38174 35.714 7.39605C35.682 7.41205 35.658 7.45605 35.642 7.52805C35.578 7.88805 35.574 8.21205 35.63 8.50005C35.686 8.78805 35.818 9.01205 36.026 9.17205C36.234 9.32405 36.53 9.40005 36.914 9.40005C37.202 9.40005 37.506 9.36805 37.826 9.30405C38.154 9.23205 38.426 9.13605 38.642 9.01605C38.6901 8.98705 38.7429 8.96674 38.798 8.95606C38.846 8.94006 38.878 8.97205 38.894 9.05205L38.99 9.35206C39.006 9.40006 39.006 9.43605 38.99 9.46005C38.9532 9.48902 38.9129 9.51321 38.87 9.53205C38.5511 9.73313 38.1968 9.8716 37.826 9.94005C37.434 10.0201 37.038 10.0601 36.638 10.0601C36.142 10.0601 35.754 9.98805 35.474 9.84405C35.21 9.70878 34.9988 9.48914 34.874 9.22006C34.7493 8.92406 34.6879 8.60521 34.694 8.28406C34.702 7.93206 34.75 7.55605 34.838 7.15605ZM38.714 6.56805C38.762 6.35205 38.786 6.14805 38.786 5.95605C38.794 5.75605 38.762 5.58005 38.69 5.42805C38.626 5.26795 38.5068 5.13602 38.354 5.05606C38.194 4.96006 37.974 4.91206 37.694 4.91206C37.422 4.91206 37.178 4.96805 36.962 5.08005C36.754 5.18405 36.574 5.32005 36.422 5.48805C36.272 5.65311 36.1467 5.83905 36.05 6.04005C35.954 6.23205 35.882 6.42005 35.834 6.60405C35.81 6.68405 35.802 6.74005 35.81 6.77205C35.818 6.79605 35.85 6.80805 35.906 6.80805H38.474C38.546 6.80805 38.598 6.79605 38.63 6.77205C38.67 6.74005 38.698 6.67205 38.714 6.56805ZM46.119 4.27605C46.607 4.27605 47.007 4.34005 47.319 4.46805C47.359 4.49205 47.383 4.51205 47.391 4.52805C47.407 4.54405 47.407 4.57205 47.391 4.61205L47.175 5.06805C47.159 5.10805 47.139 5.13205 47.115 5.14005C47.091 5.14805 47.063 5.14405 47.031 5.12805C46.8879 5.07672 46.7386 5.04445 46.587 5.03205C46.4321 5.00844 46.2757 4.99641 46.119 4.99605C45.991 4.99605 45.855 5.00805 45.711 5.03205C45.5819 5.05455 45.4538 5.08258 45.327 5.11606C45.215 5.14006 45.127 5.16406 45.063 5.18806L44.919 5.27205C44.871 5.30405 44.835 5.37605 44.811 5.48805L43.887 9.86805C43.871 9.92405 43.851 9.96005 43.827 9.97605C43.811 9.99205 43.783 10.0001 43.743 10.0001H43.095C43.0839 10.0004 43.0728 9.99843 43.0625 9.9943C43.0522 9.99017 43.0428 9.98396 43.035 9.97605C43.019 9.96005 43.019 9.93205 43.035 9.89205L44.079 4.98406C44.103 4.86406 44.131 4.78405 44.163 4.74405C44.203 4.70405 44.263 4.66805 44.343 4.63605C44.599 4.52405 44.891 4.43606 45.219 4.37206C45.555 4.30806 45.855 4.27605 46.119 4.27605ZM47.541 7.15605C47.629 6.78005 47.745 6.41605 47.889 6.06405C48.033 5.71205 48.225 5.40005 48.465 5.12805C48.705 4.84805 48.997 4.62805 49.341 4.46805C49.685 4.30805 50.093 4.22806 50.565 4.22806C51.061 4.22806 51.437 4.30005 51.693 4.44405C51.957 4.58805 52.137 4.78405 52.233 5.03205C52.337 5.27205 52.381 5.54005 52.365 5.83605C52.357 6.12405 52.321 6.41605 52.257 6.71205C52.201 7.00805 52.133 7.19205 52.053 7.26405C51.9743 7.33553 51.8713 7.37417 51.765 7.37206H48.501C48.4715 7.37353 48.4428 7.38174 48.417 7.39605C48.385 7.41205 48.361 7.45605 48.345 7.52805C48.281 7.88805 48.277 8.21205 48.333 8.50005C48.389 8.78805 48.521 9.01205 48.729 9.17205C48.937 9.32405 49.233 9.40005 49.617 9.40005C49.905 9.40005 50.209 9.36805 50.529 9.30405C50.857 9.23205 51.129 9.13605 51.345 9.01605C51.3931 8.98705 51.4459 8.96674 51.501 8.95606C51.549 8.94006 51.581 8.97205 51.597 9.05205L51.693 9.35206C51.709 9.40006 51.709 9.43605 51.693 9.46005C51.6562 9.48902 51.6159 9.51321 51.573 9.53205C51.2541 9.73313 50.8998 9.8716 50.529 9.94005C50.137 10.0201 49.741 10.0601 49.341 10.0601C48.845 10.0601 48.457 9.98805 48.177 9.84405C47.913 9.70878 47.7018 9.48914 47.577 9.22006C47.4523 8.92406 47.3909 8.60521 47.397 8.28406C47.405 7.93206 47.453 7.55605 47.541 7.15605ZM51.417 6.56805C51.465 6.35205 51.489 6.14805 51.489 5.95605C51.497 5.75605 51.465 5.58005 51.393 5.42805C51.329 5.26795 51.2098 5.13602 51.057 5.05606C50.897 4.96006 50.677 4.91206 50.397 4.91206C50.125 4.91206 49.881 4.96805 49.665 5.08005C49.457 5.18405 49.277 5.32005 49.125 5.48805C48.975 5.65311 48.8497 5.83905 48.753 6.04005C48.657 6.23205 48.585 6.42005 48.537 6.60405C48.513 6.68405 48.505 6.74005 48.513 6.77205C48.521 6.79605 48.553 6.80805 48.609 6.80805H51.177C51.249 6.80805 51.301 6.79605 51.333 6.77205C51.373 6.74005 51.401 6.67205 51.417 6.56805ZM51.608 12.8201C51.336 12.8201 51.124 12.7921 50.972 12.7361C50.895 12.7153 50.8189 12.6913 50.744 12.6641C50.704 12.6481 50.692 12.6041 50.708 12.5321L50.744 12.4001C50.76 12.3441 50.776 12.2841 50.792 12.2201C50.7968 12.1795 50.8048 12.1394 50.816 12.1001C50.824 12.0601 50.836 12.0361 50.852 12.0281C50.86 12.0281 50.884 12.0321 50.924 12.0401C51.044 12.0881 51.164 12.1201 51.284 12.1361C51.396 12.1601 51.516 12.1721 51.644 12.1721C52.036 12.1721 52.344 12.0441 52.568 11.7881C52.792 11.5401 52.948 11.1961 53.036 10.7561C53.14 10.2041 53.232 9.68806 53.312 9.20806L53.564 7.80405L53.804 6.47205C53.892 6.03205 53.984 5.58005 54.08 5.11606C54.088 5.04406 54.056 5.00805 53.984 5.00805H53.288C53.2769 5.00839 53.2658 5.00643 53.2555 5.0023C53.2452 4.99817 53.2358 4.99196 53.228 4.98406C53.2188 4.96123 53.2147 4.93665 53.216 4.91206C53.24 4.83206 53.26 4.75205 53.276 4.67205L53.324 4.43205C53.3231 4.41794 53.326 4.40384 53.3323 4.3912C53.3386 4.37855 53.3482 4.3678 53.36 4.36005C53.385 4.34379 53.4142 4.33542 53.444 4.33605H54.152C54.216 4.33605 54.252 4.30405 54.26 4.24005C54.316 3.89605 54.396 3.55205 54.5 3.20805C54.612 2.85605 54.8 2.53205 55.064 2.23605C55.288 1.98805 55.576 1.79605 55.928 1.66005C56.28 1.52405 56.7 1.45605 57.188 1.45605C57.42 1.45605 57.624 1.49205 57.8 1.56405C57.984 1.62805 58.112 1.68405 58.184 1.73205C58.232 1.75605 58.256 1.78005 58.256 1.80405C58.2599 1.81615 58.2608 1.82898 58.2587 1.8415C58.2566 1.85402 58.2516 1.86587 58.244 1.87605L58.148 2.06805L58.052 2.26005C58.028 2.30005 58.004 2.32405 57.98 2.33205C57.964 2.34005 57.944 2.33605 57.92 2.32005C57.81 2.25259 57.6876 2.20771 57.56 2.18805C57.3793 2.14478 57.1938 2.12462 57.008 2.12805C56.656 2.12805 56.36 2.18805 56.12 2.30805C55.8744 2.43371 55.6765 2.6359 55.556 2.88405C55.436 3.08405 55.344 3.30405 55.28 3.54405C55.216 3.78405 55.16 4.01205 55.112 4.22806C55.096 4.30005 55.12 4.33605 55.184 4.33605H56.984C57.016 4.33605 57.036 4.34405 57.044 4.36005C57.052 4.36805 57.052 4.39605 57.044 4.44405C57.036 4.48405 57.02 4.55205 56.996 4.64805C56.9814 4.73631 56.9654 4.82432 56.948 4.91206C56.9378 4.93944 56.9214 4.96409 56.9 4.98406C56.884 5.00006 56.86 5.00805 56.828 5.00805H55.052C55.0266 5.01096 55.0021 5.01914 54.98 5.03205C54.956 5.04805 54.94 5.07606 54.932 5.11606L54.896 5.24805C54.888 5.30405 54.876 5.36405 54.86 5.42805C54.8533 5.47626 54.8453 5.52428 54.836 5.57205L54.608 6.68806L54.38 7.92405C54.308 8.34805 54.228 8.79605 54.14 9.26805C54.06 9.74005 53.972 10.2361 53.876 10.7561C53.756 11.4041 53.524 11.9081 53.18 12.2681C52.836 12.6361 52.312 12.8201 51.608 12.8201Z" fill="#83A5FF"/>
<path opacity="0.2" d="M5.11101 4.27605C5.59901 4.27605 5.99901 4.34005 6.31101 4.46805C6.35101 4.49205 6.37501 4.51205 6.38301 4.52805C6.39901 4.54405 6.39901 4.57205 6.38301 4.61205L6.16701 5.06805C6.15101 5.10805 6.13101 5.13205 6.10701 5.14005C6.08301 5.14805 6.05501 5.14405 6.02301 5.12805C5.87986 5.07672 5.73058 5.04445 5.57901 5.03205C5.42413 5.00844 5.26769 4.99641 5.11101 4.99605C4.98301 4.99605 4.84701 5.00805 4.70301 5.03205C4.57387 5.05455 4.44575 5.08258 4.31901 5.11606C4.20701 5.14006 4.11901 5.16406 4.05501 5.18806L3.91101 5.27205C3.86301 5.30405 3.82701 5.37605 3.80301 5.48805L2.87901 9.86805C2.86301 9.92405 2.84301 9.96005 2.81901 9.97605C2.80301 9.99205 2.77501 10.0001 2.73501 10.0001H2.08701C2.0759 10.0004 2.06484 9.99843 2.05452 9.9943C2.0442 9.99017 2.03483 9.98396 2.02701 9.97605C2.01101 9.96005 2.01101 9.93205 2.02701 9.89205L3.07101 4.98406C3.09501 4.86406 3.12301 4.78405 3.15501 4.74405C3.19501 4.70405 3.25501 4.66805 3.33501 4.63605C3.59101 4.52405 3.88301 4.43606 4.21101 4.37206C4.54701 4.30806 4.84701 4.27605 5.11101 4.27605ZM6.52101 7.15605C6.60901 6.78005 6.72601 6.41605 6.87001 6.06405C7.01301 5.71205 7.20501 5.40005 7.44501 5.12805C7.68501 4.84805 7.97701 4.62805 8.32201 4.46805C8.66601 4.30805 9.07401 4.22806 9.54601 4.22806C10.041 4.22806 10.418 4.30005 10.674 4.44405C10.938 4.58805 11.118 4.78405 11.214 5.03205C11.318 5.27205 11.361 5.54005 11.345 5.83605C11.337 6.12405 11.302 6.41605 11.238 6.71205C11.182 7.00805 11.114 7.19205 11.034 7.26405C10.9551 7.33577 10.8516 7.37443 10.745 7.37206H7.48201C7.45221 7.37338 7.42311 7.38159 7.39701 7.39605C7.36501 7.41205 7.34101 7.45605 7.32501 7.52805C7.26101 7.88805 7.25801 8.21205 7.31401 8.50005C7.37001 8.78805 7.50201 9.01205 7.71001 9.17205C7.91801 9.32405 8.21301 9.40005 8.59801 9.40005C8.88501 9.40005 9.18901 9.36805 9.50901 9.30405C9.83801 9.23205 10.109 9.13605 10.325 9.01605C10.3734 8.98694 10.4265 8.96663 10.482 8.95606C10.53 8.94006 10.562 8.97205 10.578 9.05205L10.674 9.35206C10.69 9.40006 10.69 9.43605 10.674 9.46005C10.6372 9.48902 10.5969 9.51321 10.554 9.53205C10.2348 9.73325 9.88012 9.87172 9.50901 9.94005C9.11701 10.0201 8.72201 10.0601 8.32101 10.0601C7.82601 10.0601 7.43801 9.98805 7.15801 9.84405C6.89403 9.70878 6.68283 9.48914 6.55801 9.22006C6.43326 8.92406 6.37194 8.60521 6.37801 8.28406C6.38601 7.93206 6.43401 7.55605 6.52101 7.15605ZM10.398 6.56805C10.445 6.35205 10.47 6.14805 10.47 5.95605C10.477 5.75605 10.445 5.58005 10.373 5.42805C10.3092 5.26812 10.1904 5.13621 10.038 5.05606C9.87801 4.96006 9.65802 4.91206 9.37802 4.91206C9.10502 4.91206 8.86101 4.96805 8.64601 5.08005C8.43701 5.18405 8.25701 5.32005 8.10601 5.48805C7.95599 5.65311 7.83069 5.83905 7.73401 6.04005C7.63801 6.23205 7.56601 6.42005 7.51801 6.60405C7.49401 6.68405 7.48601 6.74005 7.49401 6.77205C7.50201 6.79605 7.53401 6.80805 7.59001 6.80805H10.157C10.229 6.80805 10.281 6.79605 10.313 6.77205C10.353 6.74005 10.382 6.67205 10.398 6.56805ZM13.768 10.0721C13 10.0721 12.468 9.84405 12.172 9.38805C11.884 8.92405 11.844 8.20805 12.052 7.24005C12.181 6.63205 12.357 6.14005 12.581 5.76405C12.813 5.38005 13.069 5.08405 13.349 4.87605C13.629 4.66005 13.912 4.51605 14.2 4.44405C14.496 4.36405 14.777 4.32405 15.04 4.32405C15.305 4.32405 15.56 4.36805 15.809 4.45605C16.057 4.54405 16.229 4.63205 16.325 4.72005L16.385 4.43205C16.392 4.40005 16.405 4.38006 16.42 4.37206C16.4411 4.35702 16.4662 4.34865 16.492 4.34805H17.14C17.204 4.34805 17.236 4.38005 17.236 4.44405C17.212 4.59605 17.172 4.80805 17.116 5.08005C17.069 5.34405 17.005 5.64805 16.924 5.99205C16.852 6.32805 16.769 6.69205 16.672 7.08405C16.584 7.47605 16.484 7.87606 16.372 8.28406C16.268 8.69206 16.157 9.09605 16.037 9.49605C16.0203 9.55339 15.9917 9.60655 15.953 9.65205C15.921 9.69205 15.849 9.73205 15.737 9.77205C15.1002 9.97348 14.4359 10.0747 13.768 10.0721ZM13.996 9.38805C14.132 9.38805 14.276 9.37606 14.428 9.35206L14.86 9.26805C14.989 9.23605 15.076 9.21205 15.124 9.19605C15.1723 9.1802 15.2173 9.15581 15.257 9.12405C15.3111 9.08221 15.349 9.0228 15.364 8.95606L15.532 8.29605C15.7192 7.54752 15.8915 6.79538 16.049 6.04005C16.096 5.84005 16.129 5.68805 16.145 5.58405C16.1543 5.53984 16.1501 5.49387 16.133 5.45205C16.116 5.42005 16.081 5.39205 16.025 5.36805C15.8704 5.28808 15.7099 5.21989 15.545 5.16405C15.1756 5.04116 14.777 5.03696 14.405 5.15205C14.1957 5.20859 13.9998 5.30652 13.829 5.44005C13.645 5.58405 13.472 5.80405 13.312 6.10005C13.152 6.38805 13.021 6.77205 12.916 7.25205C12.748 8.05205 12.756 8.60805 12.94 8.92005C13.133 9.23205 13.485 9.38805 13.996 9.38805ZM19.654 10.0601C19.166 10.0601 18.777 9.98805 18.489 9.84405C18.225 9.70878 18.0138 9.48914 17.889 9.22006C17.7643 8.92406 17.7029 8.60521 17.709 8.28406C17.718 7.93206 17.765 7.55605 17.854 7.15605C17.942 6.78005 18.058 6.41605 18.202 6.06405C18.345 5.71205 18.537 5.40005 18.777 5.12805C19.017 4.84805 19.309 4.62805 19.654 4.46805C19.997 4.30805 20.406 4.22806 20.878 4.22806C21.213 4.22806 21.494 4.26405 21.718 4.33605C21.942 4.40005 22.125 4.50405 22.27 4.64805C22.31 4.68805 22.33 4.72005 22.33 4.74405C22.338 4.76005 22.334 4.79205 22.318 4.84005L22.209 5.35605C22.201 5.40405 22.182 5.43205 22.149 5.44005C22.117 5.44005 22.089 5.42406 22.065 5.39206C21.9258 5.22493 21.7364 5.10711 21.525 5.05606C21.2919 4.98388 21.0491 4.94746 20.805 4.94805C20.5159 4.94233 20.2304 5.01268 19.977 5.15205C19.745 5.28005 19.546 5.45206 19.377 5.66806C19.2063 5.88875 19.0651 6.1308 18.957 6.38805C18.6882 7.00321 18.5729 7.67446 18.621 8.34405C18.654 8.67205 18.766 8.92806 18.958 9.11206C19.158 9.28806 19.45 9.37606 19.834 9.37606C20.081 9.37606 20.314 9.35205 20.529 9.30405C20.745 9.24805 20.953 9.17606 21.154 9.08806C21.25 9.04006 21.302 9.05605 21.309 9.13605L21.405 9.52005C21.413 9.56005 21.41 9.59205 21.393 9.61605C21.3704 9.63764 21.3463 9.65768 21.321 9.67605C21.0822 9.81272 20.8228 9.90997 20.553 9.96405C20.2573 10.028 19.9566 10.0602 19.654 10.0601ZM24.23 10.0001C23.735 10.0001 23.39 9.89605 23.198 9.68805C23.006 9.47205 22.91 9.17205 22.91 8.78805C22.919 8.45205 22.959 8.10005 23.03 7.73205C23.11 7.35605 23.19 6.97205 23.27 6.58005C23.334 6.30805 23.395 6.04806 23.45 5.80006C23.506 5.55206 23.57 5.30005 23.642 5.04405C23.659 4.97205 23.631 4.93605 23.558 4.93605H22.958C22.927 4.93605 22.903 4.92806 22.887 4.91206C22.878 4.89606 22.878 4.87205 22.887 4.84005L22.971 4.43205C22.976 4.40536 22.9881 4.3805 23.006 4.36005C23.023 4.34405 23.05 4.33605 23.09 4.33605H23.703C23.743 4.33605 23.77 4.32805 23.787 4.31205C23.8165 4.27755 23.8371 4.23635 23.847 4.19205L24.122 3.17205C24.139 3.11605 24.166 3.08805 24.206 3.08805H24.878C24.902 3.08805 24.922 3.09605 24.938 3.11205C24.962 3.12805 24.971 3.14805 24.962 3.17205L24.686 4.19205C24.671 4.24805 24.666 4.28805 24.674 4.31205C24.683 4.32805 24.706 4.33605 24.747 4.33605H26.151C26.191 4.33605 26.215 4.34405 26.223 4.36005C26.231 4.36805 26.231 4.39605 26.223 4.44405L26.139 4.82805C26.139 4.86005 26.127 4.88806 26.102 4.91206C26.087 4.92806 26.058 4.93605 26.018 4.93605H24.614C24.59 4.93605 24.562 4.94805 24.53 4.97205C24.506 4.98805 24.49 5.02005 24.483 5.06805C24.3357 5.59117 24.2076 6.11953 24.099 6.65205C24.026 6.98005 23.959 7.31605 23.895 7.66005C23.8322 7.98431 23.8 8.31377 23.799 8.64405C23.799 8.86805 23.851 9.03605 23.954 9.14805C24.067 9.26005 24.262 9.31605 24.542 9.31605C24.655 9.31595 24.7676 9.30388 24.878 9.28005L25.238 9.18405C25.302 9.15205 25.343 9.14005 25.358 9.14805C25.375 9.15605 25.387 9.18406 25.395 9.23206L25.43 9.62805C25.447 9.70005 25.375 9.76805 25.215 9.83205C25.1039 9.86831 24.9915 9.90034 24.878 9.92805C24.7546 9.95132 24.6305 9.97133 24.506 9.98805C24.4142 9.99522 24.3221 9.99922 24.23 10.0001ZM28.744 2.77605C28.7213 2.90182 28.663 3.01843 28.576 3.11205C28.504 3.18405 28.368 3.22005 28.168 3.22005C27.976 3.22005 27.852 3.18405 27.796 3.11205C27.748 3.03205 27.74 2.92005 27.772 2.77605C27.7879 2.65497 27.8477 2.54394 27.94 2.46405C28.028 2.38405 28.168 2.34405 28.36 2.34405C28.568 2.34405 28.688 2.38405 28.72 2.46405C28.76 2.53605 28.768 2.64005 28.744 2.77605ZM27.172 9.91605C27.164 9.97205 27.128 10.0001 27.064 10.0001H26.392C26.336 10.0001 26.312 9.97205 26.32 9.91605L27.484 4.42005C27.5 4.36405 27.536 4.33605 27.592 4.33605H28.264C28.288 4.33605 28.308 4.34405 28.324 4.36005C28.34 4.37605 28.344 4.39605 28.336 4.42005L27.172 9.91605ZM30.054 10.0001C30.0291 10.0015 30.0043 9.99545 29.9829 9.9826C29.9615 9.96975 29.9444 9.95074 29.934 9.92805C29.8087 9.5806 29.7124 9.22338 29.646 8.86005C29.5827 8.48058 29.5227 8.10057 29.466 7.72005C29.386 7.08005 29.334 6.48805 29.31 5.94405C29.2932 5.48011 29.2972 5.01564 29.322 4.55205C29.3255 4.49845 29.3377 4.44577 29.358 4.39605C29.374 4.35605 29.402 4.33605 29.442 4.33605H30.09C30.122 4.33605 30.15 4.34806 30.174 4.37206C30.198 4.38806 30.21 4.41605 30.21 4.45605C30.176 4.77886 30.164 5.10361 30.174 5.42805C30.182 5.79605 30.198 6.19206 30.222 6.61606C30.238 6.92806 30.258 7.22406 30.282 7.50406C30.314 7.78406 30.346 8.03205 30.378 8.24805C30.418 8.46405 30.45 8.63205 30.474 8.75205C30.506 8.84805 30.546 8.89205 30.594 8.88405C30.642 8.86805 30.686 8.82805 30.726 8.76405C30.838 8.62005 30.986 8.38405 31.17 8.05605C31.354 7.72805 31.55 7.35205 31.758 6.92805C31.99 6.46405 32.198 6.00405 32.382 5.54805C32.574 5.09205 32.718 4.71605 32.814 4.42005C32.838 4.36405 32.874 4.33605 32.922 4.33605H33.63C33.678 4.33605 33.694 4.36405 33.678 4.42005C33.4985 4.92012 33.2983 5.41254 33.078 5.89605C32.838 6.44005 32.562 6.98805 32.25 7.54005C32.026 7.96405 31.79 8.37605 31.542 8.77605C31.294 9.16805 31.03 9.55205 30.75 9.92805C30.718 9.97605 30.682 10.0001 30.642 10.0001H30.054ZM33.826 7.15605C33.914 6.78005 34.03 6.41605 34.174 6.06405C34.318 5.71205 34.51 5.40005 34.75 5.12805C34.99 4.84805 35.282 4.62805 35.626 4.46805C35.97 4.30805 36.378 4.22806 36.85 4.22806C37.346 4.22806 37.722 4.30005 37.978 4.44405C38.242 4.58805 38.422 4.78405 38.518 5.03205C38.622 5.27205 38.666 5.54005 38.65 5.83605C38.642 6.12405 38.606 6.41605 38.542 6.71205C38.486 7.00805 38.418 7.19205 38.338 7.26405C38.2593 7.33553 38.1563 7.37417 38.05 7.37206H34.786C34.7565 7.37353 34.7278 7.38174 34.702 7.39605C34.67 7.41205 34.646 7.45605 34.63 7.52805C34.566 7.88805 34.562 8.21205 34.618 8.50005C34.674 8.78805 34.806 9.01205 35.014 9.17205C35.222 9.32405 35.518 9.40005 35.902 9.40005C36.19 9.40005 36.494 9.36805 36.814 9.30405C37.142 9.23205 37.414 9.13605 37.63 9.01605C37.6781 8.98705 37.7309 8.96674 37.786 8.95606C37.834 8.94006 37.866 8.97205 37.882 9.05205L37.978 9.35206C37.994 9.40006 37.994 9.43605 37.978 9.46005C37.9412 9.48902 37.9009 9.51321 37.858 9.53205C37.5391 9.73313 37.1848 9.8716 36.814 9.94005C36.422 10.0201 36.026 10.0601 35.626 10.0601C35.13 10.0601 34.742 9.98805 34.462 9.84405C34.198 9.70878 33.9868 9.48914 33.862 9.22006C33.7373 8.92406 33.6759 8.60521 33.682 8.28406C33.69 7.93206 33.738 7.55605 33.826 7.15605ZM37.702 6.56805C37.75 6.35205 37.774 6.14805 37.774 5.95605C37.782 5.75605 37.75 5.58005 37.678 5.42805C37.614 5.26795 37.4948 5.13602 37.342 5.05606C37.182 4.96006 36.962 4.91206 36.682 4.91206C36.41 4.91206 36.166 4.96805 35.95 5.08005C35.742 5.18405 35.562 5.32005 35.41 5.48805C35.26 5.65311 35.1347 5.83905 35.038 6.04005C34.942 6.23205 34.87 6.42005 34.822 6.60405C34.798 6.68405 34.79 6.74005 34.798 6.77205C34.806 6.79605 34.838 6.80805 34.894 6.80805H37.462C37.534 6.80805 37.586 6.79605 37.618 6.77205C37.658 6.74005 37.686 6.67205 37.702 6.56805ZM45.107 4.27605C45.595 4.27605 45.995 4.34005 46.307 4.46805C46.347 4.49205 46.371 4.51205 46.379 4.52805C46.395 4.54405 46.395 4.57205 46.379 4.61205L46.163 5.06805C46.147 5.10805 46.127 5.13205 46.103 5.14005C46.079 5.14805 46.051 5.14405 46.019 5.12805C45.8759 5.07672 45.7266 5.04445 45.575 5.03205C45.4201 5.00844 45.2637 4.99641 45.107 4.99605C44.979 4.99605 44.843 5.00805 44.699 5.03205C44.5699 5.05455 44.4418 5.08258 44.315 5.11606C44.203 5.14006 44.115 5.16406 44.051 5.18806L43.907 5.27205C43.859 5.30405 43.823 5.37605 43.799 5.48805L42.875 9.86805C42.859 9.92405 42.839 9.96005 42.815 9.97605C42.799 9.99205 42.771 10.0001 42.731 10.0001H42.083C42.0719 10.0004 42.0608 9.99843 42.0505 9.9943C42.0402 9.99017 42.0308 9.98396 42.023 9.97605C42.007 9.96005 42.007 9.93205 42.023 9.89205L43.067 4.98406C43.091 4.86406 43.119 4.78405 43.151 4.74405C43.191 4.70405 43.251 4.66805 43.331 4.63605C43.587 4.52405 43.879 4.43606 44.207 4.37206C44.543 4.30806 44.843 4.27605 45.107 4.27605ZM46.517 7.15605C46.606 6.78005 46.722 6.41605 46.866 6.06405C47.01 5.71205 47.202 5.40005 47.442 5.12805C47.682 4.84805 47.974 4.62805 48.318 4.46805C48.662 4.30805 49.07 4.22806 49.542 4.22806C50.038 4.22806 50.414 4.30005 50.67 4.44405C50.934 4.58805 51.114 4.78405 51.21 5.03205C51.314 5.27205 51.358 5.54005 51.342 5.83605C51.334 6.12405 51.298 6.41605 51.234 6.71205C51.178 7.00805 51.11 7.19205 51.03 7.26405C50.9513 7.33553 50.8483 7.37417 50.742 7.37206H47.478C47.4485 7.37353 47.4198 7.38174 47.394 7.39605C47.362 7.41205 47.338 7.45605 47.322 7.52805C47.258 7.88805 47.254 8.21205 47.31 8.50005C47.366 8.78805 47.498 9.01205 47.706 9.17205C47.914 9.32405 48.21 9.40005 48.594 9.40005C48.882 9.40005 49.186 9.36805 49.506 9.30405C49.834 9.23205 50.106 9.13605 50.322 9.01605C50.3701 8.98705 50.4229 8.96674 50.478 8.95606C50.526 8.94006 50.558 8.97205 50.574 9.05205L50.67 9.35206C50.686 9.40006 50.686 9.43605 50.67 9.46005C50.6332 9.48902 50.5929 9.51321 50.55 9.53205C50.2311 9.73313 49.8768 9.8716 49.506 9.94005C49.114 10.0201 48.718 10.0601 48.318 10.0601C47.822 10.0601 47.434 9.98805 47.154 9.84405C46.89 9.70878 46.6788 9.48914 46.554 9.22006C46.4293 8.92406 46.3679 8.60521 46.374 8.28406C46.382 7.93206 46.43 7.55605 46.518 7.15605H46.517ZM50.394 6.56805C50.442 6.35205 50.466 6.14805 50.466 5.95605C50.474 5.75605 50.442 5.58005 50.37 5.42805C50.306 5.26795 50.1868 5.13602 50.034 5.05606C49.874 4.96006 49.654 4.91206 49.374 4.91206C49.102 4.91206 48.858 4.96805 48.642 5.08005C48.434 5.18405 48.254 5.32005 48.102 5.48805C47.952 5.65311 47.8267 5.83905 47.73 6.04005C47.634 6.23205 47.562 6.42005 47.514 6.60405C47.49 6.68405 47.482 6.74005 47.49 6.77205C47.498 6.79605 47.53 6.80805 47.586 6.80805H50.154C50.226 6.80805 50.278 6.79605 50.31 6.77205C50.35 6.74005 50.378 6.67205 50.394 6.56805ZM50.584 12.8201C50.313 12.8201 50.101 12.7921 49.949 12.7361C49.872 12.7153 49.7959 12.6913 49.721 12.6641C49.681 12.6481 49.669 12.6041 49.685 12.5321L49.721 12.4001C49.737 12.3441 49.753 12.2841 49.769 12.2201C49.7738 12.1795 49.7818 12.1394 49.793 12.1001C49.801 12.0601 49.813 12.0361 49.829 12.0281C49.837 12.0281 49.861 12.0321 49.901 12.0401C50.021 12.0881 50.141 12.1201 50.261 12.1361C50.373 12.1601 50.493 12.1721 50.621 12.1721C51.013 12.1721 51.321 12.0441 51.545 11.7881C51.769 11.5401 51.925 11.1961 52.013 10.7561C52.117 10.2041 52.209 9.68806 52.289 9.20806L52.541 7.80405L52.781 6.47205C52.869 6.03205 52.961 5.58005 53.057 5.11606C53.065 5.04406 53.033 5.00805 52.961 5.00805H52.265C52.2539 5.00839 52.2428 5.00643 52.2325 5.0023C52.2222 4.99817 52.2128 4.99196 52.205 4.98406C52.1958 4.96123 52.1917 4.93665 52.193 4.91206C52.217 4.83206 52.237 4.75205 52.253 4.67205L52.301 4.43205C52.3001 4.41794 52.303 4.40384 52.3093 4.3912C52.3156 4.37855 52.3252 4.3678 52.337 4.36005C52.362 4.34379 52.3912 4.33542 52.421 4.33605H53.129C53.193 4.33605 53.229 4.30405 53.237 4.24005C53.293 3.89605 53.373 3.55205 53.477 3.20805C53.589 2.85605 53.777 2.53205 54.041 2.23605C54.265 1.98805 54.553 1.79605 54.905 1.66005C55.257 1.52405 55.677 1.45605 56.165 1.45605C56.397 1.45605 56.601 1.49205 56.777 1.56405C56.961 1.62805 57.089 1.68405 57.161 1.73205C57.209 1.75605 57.233 1.78005 57.233 1.80405C57.2369 1.81615 57.2378 1.82898 57.2357 1.8415C57.2336 1.85402 57.2286 1.86587 57.221 1.87605L57.125 2.06805L57.029 2.26005C57.005 2.30005 56.981 2.32405 56.957 2.33205C56.941 2.34005 56.921 2.33605 56.897 2.32005C56.787 2.25259 56.6646 2.20771 56.537 2.18805C56.3563 2.14478 56.1708 2.12462 55.985 2.12805C55.633 2.12805 55.337 2.18805 55.097 2.30805C54.8515 2.43371 54.6535 2.6359 54.533 2.88405C54.413 3.08405 54.321 3.30405 54.257 3.54405C54.193 3.78405 54.137 4.01205 54.089 4.22806C54.073 4.30005 54.097 4.33605 54.161 4.33605H55.96C55.992 4.33605 56.012 4.34405 56.02 4.36005C56.028 4.36805 56.028 4.39605 56.02 4.44405C56.012 4.48405 55.996 4.55205 55.972 4.64805C55.9574 4.73631 55.9414 4.82432 55.924 4.91206C55.9138 4.93944 55.8974 4.96409 55.876 4.98406C55.86 5.00006 55.836 5.00805 55.804 5.00805H54.029C54.0036 5.01096 53.9791 5.01914 53.957 5.03205C53.933 5.04805 53.917 5.07606 53.909 5.11606L53.873 5.24805C53.865 5.30405 53.853 5.36405 53.837 5.42805C53.8303 5.47626 53.8223 5.52428 53.813 5.57205L53.585 6.68806L53.357 7.92405C53.285 8.34805 53.205 8.79605 53.117 9.26805C53.037 9.74005 52.949 10.2361 52.853 10.7561C52.733 11.4041 52.501 11.9081 52.157 12.2681C51.813 12.6361 51.288 12.8201 50.584 12.8201Z" fill="#83A5FF"/>
<path opacity="0.05" d="M4.11101 4.27605C4.59901 4.27605 4.99901 4.34005 5.31101 4.46805C5.35101 4.49205 5.37501 4.51205 5.38301 4.52805C5.39901 4.54405 5.39901 4.57205 5.38301 4.61205L5.16701 5.06805C5.15101 5.10805 5.13101 5.13205 5.10701 5.14005C5.08301 5.14805 5.05501 5.14405 5.02301 5.12805C4.87986 5.07672 4.73058 5.04445 4.57901 5.03205C4.42413 5.00844 4.26769 4.99641 4.11101 4.99605C3.98301 4.99605 3.84701 5.00805 3.70301 5.03205C3.57387 5.05455 3.44575 5.08258 3.31901 5.11606C3.20701 5.14006 3.11901 5.16406 3.05501 5.18806L2.91101 5.27205C2.86301 5.30405 2.82701 5.37605 2.80301 5.48805L1.87901 9.86805C1.86301 9.92405 1.84301 9.96005 1.81901 9.97605C1.80301 9.99205 1.77501 10.0001 1.73501 10.0001H1.08701C1.0759 10.0004 1.06484 9.99843 1.05452 9.9943C1.0442 9.99017 1.03483 9.98396 1.02701 9.97605C1.01101 9.96005 1.01101 9.93205 1.02701 9.89205L2.07101 4.98406C2.09501 4.86406 2.12301 4.78405 2.15501 4.74405C2.19501 4.70405 2.25501 4.66805 2.33501 4.63605C2.59101 4.52405 2.88301 4.43606 3.21101 4.37206C3.54701 4.30806 3.84701 4.27605 4.11101 4.27605ZM5.52101 7.15605C5.60901 6.78005 5.72601 6.41605 5.87001 6.06405C6.01301 5.71205 6.20501 5.40005 6.44501 5.12805C6.68501 4.84805 6.97701 4.62805 7.32201 4.46805C7.66501 4.30805 8.07301 4.22806 8.54601 4.22806C9.04101 4.22806 9.41801 4.30005 9.67401 4.44405C9.93801 4.58805 10.118 4.78405 10.214 5.03205C10.318 5.27205 10.361 5.54005 10.345 5.83605C10.337 6.12405 10.302 6.41605 10.238 6.71205C10.182 7.00805 10.114 7.19205 10.034 7.26405C9.95509 7.33577 9.85163 7.37443 9.74501 7.37206H6.48201C6.45221 7.37338 6.42311 7.38159 6.39701 7.39605C6.36501 7.41205 6.34101 7.45605 6.32501 7.52805C6.26101 7.88805 6.25801 8.21205 6.31401 8.50005C6.37001 8.78805 6.50201 9.01205 6.71001 9.17205C6.91801 9.32405 7.21301 9.40005 7.59801 9.40005C7.88601 9.40005 8.19001 9.36805 8.50901 9.30405C8.83801 9.23205 9.10901 9.13605 9.32501 9.01605C9.37339 8.98694 9.42655 8.96663 9.48201 8.95606C9.53001 8.94006 9.56201 8.97205 9.57801 9.05205L9.67401 9.35206C9.69001 9.40006 9.69001 9.43605 9.67401 9.46005C9.63721 9.48902 9.59689 9.51321 9.55401 9.53205C9.23478 9.73325 8.88012 9.87172 8.50901 9.94005C8.11701 10.0201 7.72101 10.0601 7.32101 10.0601C6.82601 10.0601 6.43801 9.98805 6.15801 9.84405C5.89403 9.70878 5.68283 9.48914 5.55801 9.22006C5.43326 8.92406 5.37194 8.60521 5.37801 8.28406C5.38601 7.93206 5.43401 7.55605 5.52101 7.15605ZM9.39801 6.56805C9.44501 6.35205 9.47001 6.14805 9.47001 5.95605C9.47701 5.75605 9.44501 5.58005 9.37301 5.42805C9.30921 5.26812 9.19042 5.13621 9.03801 5.05606C8.87801 4.96006 8.65802 4.91206 8.37802 4.91206C8.10502 4.91206 7.86201 4.96805 7.64601 5.08005C7.43801 5.18405 7.25801 5.32005 7.10601 5.48805C6.95599 5.65311 6.83069 5.83905 6.73401 6.04005C6.63801 6.23205 6.56601 6.42005 6.51801 6.60405C6.49401 6.68405 6.48601 6.74005 6.49401 6.77205C6.50201 6.79605 6.53401 6.80805 6.59001 6.80805H9.15801C9.23001 6.80805 9.28101 6.79605 9.31301 6.77205C9.35301 6.74005 9.38201 6.67205 9.39801 6.56805ZM12.768 10.0721C12 10.0721 11.468 9.84405 11.172 9.38805C10.884 8.92405 10.844 8.20805 11.052 7.24005C11.181 6.63205 11.357 6.14005 11.581 5.76405C11.813 5.38005 12.069 5.08405 12.349 4.87605C12.629 4.66005 12.912 4.51605 13.2 4.44405C13.496 4.36405 13.777 4.32405 14.04 4.32405C14.305 4.32405 14.56 4.36805 14.809 4.45605C15.057 4.54405 15.229 4.63205 15.325 4.72005L15.385 4.43205C15.393 4.40005 15.405 4.38006 15.421 4.37206C15.4421 4.35702 15.4672 4.34865 15.493 4.34805H16.14C16.204 4.34805 16.236 4.38005 16.236 4.44405C16.212 4.59605 16.172 4.80805 16.116 5.08005C16.069 5.34405 16.005 5.64805 15.925 5.99205C15.852 6.32805 15.768 6.69205 15.672 7.08405C15.584 7.47605 15.484 7.87606 15.372 8.28406C15.268 8.69206 15.156 9.09605 15.037 9.49605C15.02 9.55347 14.991 9.60664 14.952 9.65205C14.921 9.69205 14.848 9.73205 14.736 9.77205C14.0995 9.97338 13.4356 10.0746 12.768 10.0721ZM12.996 9.38805C13.132 9.38805 13.276 9.37606 13.428 9.35206L13.86 9.26805C13.989 9.23605 14.076 9.21205 14.124 9.19605C14.1723 9.1802 14.2173 9.15581 14.257 9.12405C14.3111 9.08221 14.349 9.0228 14.364 8.95606L14.532 8.29605C14.7192 7.54752 14.8915 6.79538 15.049 6.04005C15.097 5.84005 15.129 5.68805 15.145 5.58405C15.1543 5.53984 15.1501 5.49387 15.133 5.45205C15.117 5.42005 15.081 5.39205 15.025 5.36805C14.8704 5.28808 14.7099 5.21989 14.545 5.16405C14.1756 5.04116 13.777 5.03696 13.405 5.15205C13.1957 5.20859 12.9998 5.30652 12.829 5.44005C12.645 5.58405 12.472 5.80405 12.312 6.10005C12.152 6.38805 12.021 6.77205 11.916 7.25205C11.748 8.05205 11.756 8.60805 11.94 8.92005C12.133 9.23205 12.485 9.38805 12.996 9.38805ZM18.654 10.0601C18.166 10.0601 17.777 9.98805 17.489 9.84405C17.225 9.70878 17.0138 9.48914 16.889 9.22006C16.7643 8.92406 16.7029 8.60521 16.709 8.28406C16.718 7.93206 16.765 7.55605 16.854 7.15605C16.942 6.78005 17.058 6.41605 17.202 6.06405C17.345 5.71205 17.537 5.40005 17.777 5.12805C18.017 4.84805 18.309 4.62805 18.654 4.46805C18.997 4.30805 19.406 4.22806 19.878 4.22806C20.213 4.22806 20.494 4.26405 20.718 4.33605C20.942 4.40005 21.125 4.50405 21.27 4.64805C21.31 4.68805 21.33 4.72005 21.33 4.74405C21.338 4.76005 21.334 4.79205 21.318 4.84005L21.209 5.35605C21.201 5.40405 21.182 5.43205 21.149 5.44005C21.117 5.44005 21.089 5.42406 21.065 5.39206C20.9258 5.22493 20.7364 5.10711 20.525 5.05606C20.2919 4.98388 20.0491 4.94746 19.805 4.94805C19.5159 4.94233 19.2304 5.01268 18.977 5.15205C18.745 5.28005 18.546 5.45206 18.377 5.66806C18.2063 5.88875 18.0651 6.1308 17.957 6.38805C17.6882 7.00321 17.5729 7.67446 17.621 8.34405C17.654 8.67205 17.766 8.92806 17.958 9.11206C18.158 9.28806 18.45 9.37606 18.834 9.37606C19.081 9.37606 19.314 9.35205 19.529 9.30405C19.745 9.24805 19.953 9.17606 20.154 9.08806C20.25 9.04006 20.302 9.05605 20.309 9.13605L20.405 9.52005C20.413 9.56005 20.41 9.59205 20.393 9.61605C20.3704 9.63764 20.3463 9.65768 20.321 9.67605C20.0822 9.81272 19.8228 9.90997 19.553 9.96405C19.2573 10.028 18.9566 10.0602 18.654 10.0601ZM23.23 10.0001C22.735 10.0001 22.39 9.89605 22.198 9.68805C22.006 9.47205 21.91 9.17205 21.91 8.78805C21.919 8.45205 21.959 8.10005 22.03 7.73205C22.11 7.35605 22.19 6.97205 22.27 6.58005C22.334 6.30805 22.395 6.04806 22.45 5.80006C22.506 5.55206 22.57 5.30005 22.642 5.04405C22.659 4.97205 22.631 4.93605 22.558 4.93605H21.958C21.927 4.93605 21.903 4.92806 21.887 4.91206C21.878 4.89606 21.878 4.87205 21.887 4.84005L21.971 4.43205C21.976 4.40536 21.9881 4.3805 22.006 4.36005C22.023 4.34405 22.05 4.33605 22.09 4.33605H22.703C22.743 4.33605 22.77 4.32805 22.787 4.31205C22.8165 4.27755 22.8371 4.23635 22.847 4.19205L23.122 3.17205C23.139 3.11605 23.166 3.08805 23.206 3.08805H23.878C23.902 3.08805 23.922 3.09605 23.938 3.11205C23.962 3.12805 23.971 3.14805 23.962 3.17205L23.686 4.19205C23.671 4.24805 23.666 4.28805 23.674 4.31205C23.683 4.32805 23.706 4.33605 23.747 4.33605H25.151C25.191 4.33605 25.215 4.34405 25.223 4.36005C25.231 4.36805 25.231 4.39605 25.223 4.44405L25.139 4.82805C25.139 4.86005 25.127 4.88806 25.102 4.91206C25.087 4.92806 25.058 4.93605 25.018 4.93605H23.614C23.59 4.93605 23.562 4.94805 23.53 4.97205C23.506 4.98805 23.49 5.02005 23.483 5.06805C23.3357 5.59117 23.2076 6.11953 23.099 6.65205C23.026 6.98005 22.959 7.31605 22.895 7.66005C22.8322 7.98431 22.8 8.31377 22.799 8.64405C22.799 8.86805 22.851 9.03605 22.954 9.14805C23.067 9.26005 23.262 9.31605 23.542 9.31605C23.655 9.31595 23.7676 9.30388 23.878 9.28005L24.238 9.18405C24.302 9.15205 24.343 9.14005 24.358 9.14805C24.375 9.15605 24.387 9.18406 24.395 9.23206L24.43 9.62805C24.447 9.70005 24.375 9.76805 24.215 9.83205C24.1039 9.86831 23.9915 9.90034 23.878 9.92805C23.7546 9.95132 23.6305 9.97133 23.506 9.98805C23.4142 9.99522 23.3221 9.99922 23.23 10.0001ZM27.744 2.77605C27.7213 2.90182 27.663 3.01843 27.576 3.11205C27.504 3.18405 27.368 3.22005 27.168 3.22005C26.976 3.22005 26.852 3.18405 26.796 3.11205C26.748 3.03205 26.74 2.92005 26.772 2.77605C26.7879 2.65497 26.8477 2.54394 26.94 2.46405C27.028 2.38405 27.168 2.34405 27.36 2.34405C27.568 2.34405 27.688 2.38405 27.72 2.46405C27.76 2.53605 27.768 2.64005 27.744 2.77605ZM26.172 9.91605C26.164 9.97205 26.128 10.0001 26.064 10.0001H25.392C25.336 10.0001 25.312 9.97205 25.32 9.91605L26.484 4.42005C26.5 4.36405 26.536 4.33605 26.592 4.33605H27.264C27.288 4.33605 27.308 4.34405 27.324 4.36005C27.34 4.37605 27.344 4.39605 27.336 4.42005L26.172 9.91605ZM29.054 10.0001C29.0291 10.0015 29.0043 9.99545 28.9829 9.9826C28.9615 9.96975 28.9444 9.95074 28.934 9.92805C28.8087 9.5806 28.7124 9.22338 28.646 8.86005C28.5827 8.48058 28.5227 8.10057 28.466 7.72005C28.386 7.08005 28.334 6.48805 28.31 5.94405C28.2932 5.48011 28.2972 5.01564 28.322 4.55205C28.3255 4.49845 28.3377 4.44577 28.358 4.39605C28.374 4.35605 28.402 4.33605 28.442 4.33605H29.09C29.122 4.33605 29.15 4.34806 29.174 4.37206C29.198 4.38806 29.21 4.41605 29.21 4.45605C29.176 4.77886 29.164 5.10361 29.174 5.42805C29.182 5.79605 29.198 6.19206 29.222 6.61606C29.238 6.92806 29.258 7.22406 29.282 7.50406C29.314 7.78406 29.346 8.03205 29.378 8.24805C29.418 8.46405 29.45 8.63205 29.474 8.75205C29.506 8.84805 29.546 8.89205 29.594 8.88405C29.642 8.86805 29.686 8.82805 29.726 8.76405C29.838 8.62005 29.986 8.38405 30.17 8.05605C30.354 7.72805 30.55 7.35205 30.758 6.92805C30.99 6.46405 31.198 6.00405 31.382 5.54805C31.574 5.09205 31.718 4.71605 31.814 4.42005C31.838 4.36405 31.874 4.33605 31.922 4.33605H32.63C32.678 4.33605 32.694 4.36405 32.678 4.42005C32.4985 4.92012 32.2983 5.41254 32.078 5.89605C31.838 6.44005 31.562 6.98805 31.25 7.54005C31.026 7.96405 30.79 8.37605 30.542 8.77605C30.294 9.16805 30.03 9.55205 29.75 9.92805C29.718 9.97605 29.682 10.0001 29.642 10.0001H29.054ZM32.826 7.15605C32.914 6.78005 33.03 6.41605 33.174 6.06405C33.318 5.71205 33.51 5.40005 33.75 5.12805C33.99 4.84805 34.282 4.62805 34.626 4.46805C34.97 4.30805 35.378 4.22806 35.85 4.22806C36.346 4.22806 36.722 4.30005 36.978 4.44405C37.242 4.58805 37.422 4.78405 37.518 5.03205C37.622 5.27205 37.666 5.54005 37.65 5.83605C37.642 6.12405 37.606 6.41605 37.542 6.71205C37.486 7.00805 37.418 7.19205 37.338 7.26405C37.2593 7.33553 37.1563 7.37417 37.05 7.37206H33.786C33.7565 7.37353 33.7278 7.38174 33.702 7.39605C33.67 7.41205 33.646 7.45605 33.63 7.52805C33.566 7.88805 33.562 8.21205 33.618 8.50005C33.674 8.78805 33.806 9.01205 34.014 9.17205C34.222 9.32405 34.518 9.40005 34.902 9.40005C35.19 9.40005 35.494 9.36805 35.814 9.30405C36.142 9.23205 36.414 9.13605 36.63 9.01605C36.6781 8.98705 36.7309 8.96674 36.786 8.95606C36.834 8.94006 36.866 8.97205 36.882 9.05205L36.978 9.35206C36.994 9.40006 36.994 9.43605 36.978 9.46005C36.9412 9.48902 36.9009 9.51321 36.858 9.53205C36.5391 9.73313 36.1848 9.8716 35.814 9.94005C35.422 10.0201 35.026 10.0601 34.626 10.0601C34.13 10.0601 33.742 9.98805 33.462 9.84405C33.198 9.70878 32.9868 9.48914 32.862 9.22006C32.7373 8.92406 32.6759 8.60521 32.682 8.28406C32.69 7.93206 32.738 7.55605 32.826 7.15605ZM36.702 6.56805C36.75 6.35205 36.774 6.14805 36.774 5.95605C36.782 5.75605 36.75 5.58005 36.678 5.42805C36.614 5.26795 36.4948 5.13602 36.342 5.05606C36.182 4.96006 35.962 4.91206 35.682 4.91206C35.41 4.91206 35.166 4.96805 34.95 5.08005C34.742 5.18405 34.562 5.32005 34.41 5.48805C34.26 5.65311 34.1347 5.83905 34.038 6.04005C33.942 6.23205 33.87 6.42005 33.822 6.60405C33.798 6.68405 33.79 6.74005 33.798 6.77205C33.806 6.79605 33.838 6.80805 33.894 6.80805H36.462C36.534 6.80805 36.586 6.79605 36.618 6.77205C36.658 6.74005 36.686 6.67205 36.702 6.56805ZM44.107 4.27605C44.595 4.27605 44.995 4.34005 45.307 4.46805C45.347 4.49205 45.371 4.51205 45.379 4.52805C45.395 4.54405 45.395 4.57205 45.379 4.61205L45.163 5.06805C45.147 5.10805 45.127 5.13205 45.103 5.14005C45.079 5.14805 45.051 5.14405 45.019 5.12805C44.8759 5.07672 44.7266 5.04445 44.575 5.03205C44.4201 5.00844 44.2637 4.99641 44.107 4.99605C43.979 4.99605 43.843 5.00805 43.699 5.03205C43.5699 5.05455 43.4418 5.08258 43.315 5.11606C43.203 5.14006 43.115 5.16406 43.051 5.18806L42.907 5.27205C42.859 5.30405 42.823 5.37605 42.799 5.48805L41.875 9.86805C41.859 9.92405 41.839 9.96005 41.815 9.97605C41.799 9.99205 41.771 10.0001 41.731 10.0001H41.083C41.0719 10.0004 41.0608 9.99843 41.0505 9.9943C41.0402 9.99017 41.0308 9.98396 41.023 9.97605C41.007 9.96005 41.007 9.93205 41.023 9.89205L42.067 4.98406C42.091 4.86406 42.119 4.78405 42.151 4.74405C42.191 4.70405 42.251 4.66805 42.331 4.63605C42.587 4.52405 42.879 4.43606 43.207 4.37206C43.543 4.30806 43.843 4.27605 44.107 4.27605ZM45.517 7.15605C45.606 6.78005 45.722 6.41605 45.866 6.06405C46.01 5.71205 46.202 5.40005 46.442 5.12805C46.682 4.84805 46.974 4.62805 47.318 4.46805C47.662 4.30805 48.07 4.22806 48.542 4.22806C49.038 4.22806 49.414 4.30005 49.67 4.44405C49.934 4.58805 50.114 4.78405 50.21 5.03205C50.314 5.27205 50.358 5.54005 50.342 5.83605C50.334 6.12405 50.298 6.41605 50.234 6.71205C50.178 7.00805 50.11 7.19205 50.03 7.26405C49.9513 7.33553 49.8483 7.37417 49.742 7.37206H46.478C46.4485 7.37353 46.4198 7.38174 46.394 7.39605C46.362 7.41205 46.338 7.45605 46.322 7.52805C46.258 7.88805 46.254 8.21205 46.31 8.50005C46.366 8.78805 46.498 9.01205 46.706 9.17205C46.914 9.32405 47.21 9.40005 47.594 9.40005C47.882 9.40005 48.186 9.36805 48.506 9.30405C48.834 9.23205 49.106 9.13605 49.322 9.01605C49.3701 8.98705 49.4229 8.96674 49.478 8.95606C49.526 8.94006 49.558 8.97205 49.574 9.05205L49.67 9.35206C49.686 9.40006 49.686 9.43605 49.67 9.46005C49.6332 9.48902 49.5929 9.51321 49.55 9.53205C49.2311 9.73313 48.8768 9.8716 48.506 9.94005C48.114 10.0201 47.718 10.0601 47.318 10.0601C46.822 10.0601 46.434 9.98805 46.154 9.84405C45.89 9.70878 45.6788 9.48914 45.554 9.22006C45.4293 8.92406 45.3679 8.60521 45.374 8.28406C45.382 7.93206 45.43 7.55605 45.518 7.15605H45.517ZM49.394 6.56805C49.442 6.35205 49.466 6.14805 49.466 5.95605C49.474 5.75605 49.442 5.58005 49.37 5.42805C49.306 5.26795 49.1868 5.13602 49.034 5.05606C48.874 4.96006 48.654 4.91206 48.374 4.91206C48.102 4.91206 47.858 4.96805 47.642 5.08005C47.434 5.18405 47.254 5.32005 47.102 5.48805C46.952 5.65311 46.8267 5.83905 46.73 6.04005C46.634 6.23205 46.562 6.42005 46.514 6.60405C46.49 6.68405 46.482 6.74005 46.49 6.77205C46.498 6.79605 46.53 6.80805 46.586 6.80805H49.154C49.226 6.80805 49.278 6.79605 49.31 6.77205C49.35 6.74005 49.378 6.67205 49.394 6.56805ZM49.584 12.8201C49.313 12.8201 49.101 12.7921 48.949 12.7361C48.872 12.7153 48.7959 12.6913 48.721 12.6641C48.681 12.6481 48.669 12.6041 48.685 12.5321L48.721 12.4001C48.737 12.3441 48.753 12.2841 48.769 12.2201C48.7738 12.1795 48.7818 12.1394 48.793 12.1001C48.801 12.0601 48.813 12.0361 48.829 12.0281C48.837 12.0281 48.861 12.0321 48.901 12.0401C49.021 12.0881 49.141 12.1201 49.261 12.1361C49.373 12.1601 49.493 12.1721 49.621 12.1721C50.013 12.1721 50.321 12.0441 50.545 11.7881C50.769 11.5401 50.925 11.1961 51.013 10.7561C51.117 10.2041 51.209 9.68806 51.289 9.20806L51.541 7.80405L51.781 6.47205C51.869 6.03205 51.961 5.58005 52.057 5.11606C52.065 5.04406 52.033 5.00805 51.961 5.00805H51.265C51.2539 5.00839 51.2428 5.00643 51.2325 5.0023C51.2222 4.99817 51.2128 4.99196 51.205 4.98406C51.1958 4.96123 51.1917 4.93665 51.193 4.91206C51.217 4.83206 51.237 4.75205 51.253 4.67205L51.301 4.43205C51.3001 4.41794 51.303 4.40384 51.3093 4.3912C51.3156 4.37855 51.3252 4.3678 51.337 4.36005C51.362 4.34379 51.3912 4.33542 51.421 4.33605H52.129C52.193 4.33605 52.229 4.30405 52.237 4.24005C52.293 3.89605 52.373 3.55205 52.477 3.20805C52.589 2.85605 52.777 2.53205 53.041 2.23605C53.265 1.98805 53.553 1.79605 53.905 1.66005C54.257 1.52405 54.677 1.45605 55.165 1.45605C55.397 1.45605 55.601 1.49205 55.777 1.56405C55.961 1.62805 56.089 1.68405 56.161 1.73205C56.209 1.75605 56.233 1.78005 56.233 1.80405C56.2369 1.81615 56.2378 1.82898 56.2357 1.8415C56.2336 1.85402 56.2286 1.86587 56.221 1.87605L56.125 2.06805L56.029 2.26005C56.005 2.30005 55.981 2.32405 55.957 2.33205C55.941 2.34005 55.921 2.33605 55.897 2.32005C55.787 2.25259 55.6646 2.20771 55.537 2.18805C55.3563 2.14478 55.1708 2.12462 54.985 2.12805C54.633 2.12805 54.337 2.18805 54.097 2.30805C53.8515 2.43371 53.6535 2.6359 53.533 2.88405C53.413 3.08405 53.321 3.30405 53.257 3.54405C53.193 3.78405 53.137 4.01205 53.089 4.22806C53.073 4.30005 53.097 4.33605 53.161 4.33605H54.96C54.992 4.33605 55.012 4.34405 55.02 4.36005C55.028 4.36805 55.028 4.39605 55.02 4.44405C55.012 4.48405 54.996 4.55205 54.972 4.64805C54.9574 4.73631 54.9414 4.82432 54.924 4.91206C54.9138 4.93944 54.8974 4.96409 54.876 4.98406C54.86 5.00006 54.836 5.00805 54.804 5.00805H53.029C53.0036 5.01096 52.9791 5.01914 52.957 5.03205C52.933 5.04805 52.917 5.07606 52.909 5.11606L52.873 5.24805C52.865 5.30405 52.853 5.36405 52.837 5.42805C52.8303 5.47626 52.8223 5.52428 52.813 5.57205L52.585 6.68806L52.357 7.92405C52.285 8.34805 52.205 8.79605 52.117 9.26805C52.037 9.74005 51.949 10.2361 51.853 10.7561C51.733 11.4041 51.501 11.9081 51.157 12.2681C50.813 12.6361 50.288 12.8201 49.584 12.8201Z" fill="#83A5FF"/>
</svg>
